Stargate 1994  BluRay 1080p DTS x264-LoNeWoLf

Source - NTSC BluRay Disc.

Movie has been tested and is DXVA Compliant


General Information:

RUNTIME........: 2h 9mn
SIZE...........: 10.0 GiB
VIDEO CODEC....: x264 (L4.1)
RESOLUTION.....: 1920x816
BITRATE........: Overall bit rate : 11.0 Mbps 
FRAMERATE......: 23.976 fps
AUDIO 1........: English DTS 6 Channel 1510 Kbps
SUBTITLES......:  English ,Spanish
CHAPTERS.......: YES
SOURCE.........: NTSC Blu-ray 
ENCODED DATE...: UTC 2011-01-06 02:25:42  
Encoder........: TequilaBob a.k.a.bobnjeff/a.k.a. LoNeWoLf
GENRE..........: Sci Fi, Fantasy , Action , Adventure
RATING.........: .7/10 X  Users: 6.7/10 (48,676 votes) 212 reviews | Critics: 74 reviews
IMDB link......: http://www.imdb.com/title/tt0111282/

Rated PG-13 for sci-fi action violence

Two very different men join forces to unravel the mystery of a StarGate, an ancient human transmitter, discovered in the Egyptian desert. 
Once activated, it enables scientists and the military to travel light years from earth, to a strange and alien world, where the visitors 
must overcome an enigmatic ruler


Director: Roland Emmerich
Writers: Dean Devlin, Roland Emmerich
Stars:Kurt Russell, James Spader, Alexis Cruz 


See the full size 1920x816 PNG files at the link below
 
http://s1015.photobucket.com/albums/af279/tequila-bob/Stargate%201994/



Format : Matroska 
File size : 10.0 GiB 
Duration : 2h 9mn 
Overall bit rate : 11.0 Mbps 
Encoded date : UTC 2011-01-06 02:25:42 
Writing application : mkvmerge v4.4.0 ('Die Wiederkehr') built on Oct 31 2010 21:52:48 
Writing library : libebml v1.0.0 + libmatroska v1.0.0 

Video 
ID : 1 
Format : AVC 
Format/Info : Advanced Video Codec 
Format profile : High@L4.1 
Format settings, CABAC : Yes 
Format settings, ReFrames : 4 frames 
Muxing mode : Container profile=Unknown@4.1 
Codec ID : V_MPEG4/ISO/AVC 
Duration : 2h 9mn 
Bit rate : 9 499 Kbps 
Width : 1 920 pixels 
Height : 816 pixels 
Display aspect ratio : 2.35:1 
Frame rate : 23.976 fps 
Color space : YUV 
Chroma subsampling : 4:2:0 
Bit depth : 8 bits 
Scan type : Progressive 
Bits/(Pixel*Frame) : 0.253 
Stream size : 8.43 GiB (84%) 
Writing library : x264 core 98 r1649 c54c47d 
Encoding settings : cabac=1 / ref=5 / deblock=1:-3:-3 / analyse=0x3:0x113 / me=umh / subme=9 / psy=1 / psy_rd=1.00:0.15 / mixed_ref=1 / me_range=32 / chroma_me=1 / trellis=1 / 8x8dct=1 / cqm=0 / deadzone=21,11 / fast_pskip=0 / chroma_qp_offset=-3 / threads=6 / sliced_threads=0 / nr=0 / decimate=1 / interlaced=0 / constrained_intra=0 / bframes=3 / b_pyramid=1 / b_adapt=2 / b_bias=0 / direct=1 / weightb=1 / weightp=2 / keyint=250 / keyint_min=25 / scenecut=40 / intra_refresh=0 / rc_lookahead=40 / rc=2pass / mbtree=1 / bitrate=9499 / ratetol=1.0 / qcomp=0.60 / qpmin=10 / qpmax=51 / qpstep=4 / cplxblur=20.0 / qblur=0.5 / vbv_maxrate=40000 / vbv_bufsize=30000 / ip_ratio=1.40 / aq=1:1.50 / nal_hrd=none 
Language : English 

Audio 
ID : 2 
Format : DTS 
Format/Info : Digital Theater Systems 
Format profile : ES 
Codec ID : A_DTS 
Duration : 2h 9mn 
Bit rate mode : Constant 
Bit rate : 1 510 Kbps 
Channel(s) : 7 channels 
Channel positions : Front: L C R, Side: L R, Back: C, LFE 
Sampling rate : 48.0 KHz 
Bit depth : 24 bits 
Video delay : 10ms 
Stream size : 1.37 GiB (14%) 
Title : 3/2+1 
Language : English 

Text #1 
ID : 3 
Format : PGS 
Codec ID : S_HDMV/PGS 
Codec ID/Info : The same subtitle format used on BDs/HD-DVDs 
Language : English 

Text #2 
ID : 4 
Format : PGS 
Codec ID : S_HDMV/PGS 
Codec ID/Info : The same subtitle format used on BDs/HD-DVDs 
Language : Spanish 

Text #3 
ID : 5 
Format : PGS 
Codec ID : S_HDMV/PGS 
Codec ID/Info : The same subtitle format used on BDs/HD-DVDs 
Language : English 

Menu & 29 Chapters




See the full size 1920x816 PNG files at the link below
 
http://s1015.photobucket.com/albums/af279/tequila-bob/Stargate%201994/

